<svg id="Layer_1" data-name="Layer 1" xmlns="http://www.w3.org/2000/svg" viewBox="0 0 96 96"><path d="M48.83,78.73A30.72,30.72,0,0,1,38.54,19.17a30.26,30.26,0,0,1,23.4,1A30.7,30.7,0,0,1,76.69,60.91h0A30.82,30.82,0,0,1,48.83,78.73Zm.28-59.46A28.78,28.78,0,0,0,36.83,74.06a28.35,28.35,0,0,0,21.88.9,28.69,28.69,0,0,0,16.17-14.9h0A28.58,28.58,0,0,0,49.11,19.27ZM75.78,60.49h0Z"/><path d="M48.7,34.43c-1.88,0-4.06-.7-7-2.78-3.58-2.54-5.4-5.15-5.42-7.76a6.15,6.15,0,0,1,2.36-4.71,1,1,0,0,1,1.4.21,1,1,0,0,1-.21,1.39,4.22,4.22,0,0,0-1.55,3.12c0,1.89,1.61,4,4.58,6.12,4.8,3.41,6.85,2.56,10,1.29a18.22,18.22,0,0,1,9.79-1.66c6.07.65,8.47-1.42,8.5-1.44a1,1,0,0,1,1.41.07,1,1,0,0,1-.05,1.4c-.12.11-3,2.71-10.07,2a16.21,16.21,0,0,0-8.82,1.52A12.56,12.56,0,0,1,48.7,34.43Z"/><path d="M39.73,77.28h-.09a1,1,0,0,1-.9-1.09c.23-2.52-1.55-3.71-3.44-5-1.69-1.13-3.6-2.41-2.76-4.7a2.78,2.78,0,0,0-.2-2.6c-1.79-2.77-8.57-3.85-11-4a1,1,0,0,1-.92-1.06,1,1,0,0,1,1.07-.93c1,.07,9.91.84,12.56,4.94a4.75,4.75,0,0,1,.39,4.37c-.25.7.22,1.15,2,2.34,2,1.32,4.67,3.12,4.32,6.83A1,1,0,0,1,39.73,77.28Z"/><path d="M64.76,58a2.15,2.15,0,0,1-.88-.19c-1.81-.81-3.19-4.3-3.57-5.35-.69-.84-.75-.82-1.31-.65a6.84,6.84,0,0,1-2.65.32,3.89,3.89,0,0,1-3.22-2.45c-.6-1.29-.86-3.19-.15-4.16A1.39,1.39,0,0,1,54.3,45a6.87,6.87,0,0,0,3.4-1.73,3.69,3.69,0,0,1,2.88-1.15h.07A3.92,3.92,0,0,1,64,43.63a2.82,2.82,0,0,0,.71.65A7.75,7.75,0,0,1,68,50.41a.82.82,0,0,0,.07.38,5.53,5.53,0,0,1,0,4.06,4.78,4.78,0,0,1-2.45,3A1.9,1.9,0,0,1,64.76,58Zm-5.27-8.3c.79,0,1.49.41,2.48,1.63a1.11,1.11,0,0,1,.17.3C63,54,64.25,56,64.76,56a3,3,0,0,0,1.33-1.82,3.83,3.83,0,0,0,.19-2.43A2.79,2.79,0,0,1,66,50.53,5.76,5.76,0,0,0,63.56,46a4.87,4.87,0,0,1-1.23-1.15A1.85,1.85,0,0,0,61,44.08a2.76,2.76,0,0,0-1.65.31,8.42,8.42,0,0,1-4.75,2.55,4,4,0,0,0,.54,2.2,1.74,1.74,0,0,0,1.38,1,4.76,4.76,0,0,0,1.94-.24A3.67,3.67,0,0,1,59.49,49.72Z"/><path d="M76.08,69.53a1.17,1.17,0,0,1-.26,0A207.41,207.41,0,0,1,43.71,57.34C31.68,51.74,20.77,45.6,13,40.05c-8.42-6-12-10.44-10.73-13.22,2-4.28,14.11-1.44,23.92,1.7a1,1,0,1,1-.61,1.91c-15.69-5-20.92-4-21.49-2.77-.47,1,1.13,4.39,10.07,10.75C21.83,43.9,32.63,50,44.56,55.52a204.38,204.38,0,0,0,31.78,12,1,1,0,0,1-.26,2Z"/><path d="M88.24,71.6A26.57,26.57,0,0,1,85,71.38a1,1,0,0,1,.24-2c4.41.54,6.35-.07,6.69-.81.55-1.16-1.79-5.54-14.51-13.76a1,1,0,1,1,1.08-1.68c8,5.17,17.15,12.2,15.25,16.28C93.06,70.88,91.25,71.6,88.24,71.6Z"/><path d="M80.57,75.2a5.61,5.61,0,0,1-2.37-.53,5.63,5.63,0,0,1-2.72-7.46,5.61,5.61,0,0,1,10.36.45,5.64,5.64,0,0,1-5.27,7.54Zm0-9.23a3.62,3.62,0,1,0,1.51.34A3.57,3.57,0,0,0,80.58,66Z"/></svg>